<svg width="27" height="27" viewBox="0 0 27 27" fill="none" xmlns="http://www.w3.org/2000/svg">
<circle cx="13.5" cy="13.5" r="11.5" fill="#7BB43F" stroke="white" stroke-width="4"/>
<path d="M11.0769 16C11.0769 15.9097 11.1112 15.8316 11.1797 15.7656C11.2482 15.6997 11.3293 15.6667 11.4231 15.6667C11.5168 15.6667 11.598 15.6997 11.6665 15.7656C11.735 15.8316 11.7692 15.9097 11.7692 16C11.7692 16.0903 11.735 16.1684 11.6665 16.2344C11.598 16.3003 11.5168 16.3333 11.4231 16.3333C11.3293 16.3333 11.2482 16.3003 11.1797 16.2344C11.1112 16.1684 11.0769 16.0903 11.0769 16ZM9.69231 16C9.69231 15.9097 9.72656 15.8316 9.79507 15.7656C9.86358 15.6997 9.94471 15.6667 10.0385 15.6667C10.1322 15.6667 10.2133 15.6997 10.2819 15.7656C10.3504 15.8316 10.3846 15.9097 10.3846 16C10.3846 16.0903 10.3504 16.1684 10.2819 16.2344C10.2133 16.3003 10.1322 16.3333 10.0385 16.3333C9.94471 16.3333 9.86358 16.3003 9.79507 16.2344C9.72656 16.1684 9.69231 16.0903 9.69231 16ZM9 14.8333L9 16.5C9 16.6389 9.05048 16.7569 9.15144 16.8542C9.2524 16.9514 9.375 17 9.51923 17L17.4808 17C17.625 17 17.7476 16.9514 17.8486 16.8542C17.9495 16.7569 18 16.6389 18 16.5L18 14.8333C18 14.6944 17.9495 14.5764 17.8486 14.4792C17.7476 14.3819 17.625 14.3333 17.4808 14.3333L14.9657 14.3333L14.2356 15.0417C14.0264 15.2361 13.7812 15.3333 13.5 15.3333C13.2187 15.3333 12.9736 15.2361 12.7644 15.0417L12.0288 14.3333L9.51923 14.3333C9.375 14.3333 9.2524 14.3819 9.15144 14.4792C9.05048 14.5764 9 14.6944 9 14.8333ZM10.7578 11.8698C10.6965 12.0122 10.7218 12.1337 10.8335 12.2344L13.2566 14.5677C13.3215 14.6337 13.4026 14.6667 13.5 14.6667C13.5974 14.6667 13.6785 14.6337 13.7434 14.5677L16.1665 12.2344C16.2782 12.1337 16.3035 12.0122 16.2422 11.8698C16.1809 11.7344 16.0745 11.6667 15.9231 11.6667L14.5385 11.6667L14.5385 9.33333C14.5385 9.24306 14.5042 9.16493 14.4357 9.09896C14.3672 9.03299 14.2861 9 14.1923 9L12.8077 9C12.7139 9 12.6328 9.03299 12.5643 9.09896C12.4958 9.16493 12.4615 9.24306 12.4615 9.33333L12.4615 11.6667L11.0769 11.6667C10.9255 11.6667 10.8191 11.7344 10.7578 11.8698Z" fill="white"/>
</svg>
