<svg width="26" height="28" viewBox="0 0 26 28" fill="none" xmlns="http://www.w3.org/2000/svg">
<path d="M14.7048 22.6341C14.7048 23.553 14.3397 24.4343 13.69 25.0841C13.0402 25.7339 12.1589 26.0989 11.24 26.0989C10.321 26.0989 9.43973 25.7339 8.78995 25.0841C8.14017 24.4343 7.77513 23.553 7.77513 22.6341M12.0727 6.46834L10.3795 6.46488C6.51739 6.45564 3.16459 9.59362 3.13803 13.3945V17.7718C3.13803 18.6842 3.02253 19.5746 2.52475 20.3334L2.19328 20.8393C1.68857 21.6062 2.2314 22.6341 3.13803 22.6341H19.3419C20.2485 22.6341 20.7902 21.6062 20.2866 20.8393L19.9552 20.3334C19.4585 19.5746 19.3419 18.683 19.3419 17.7706V13.3957C19.2957 9.59362 15.9348 6.47758 12.0727 6.46834V6.46834Z" stroke="#7BB43F" stroke-width="3" stroke-linecap="round" stroke-linejoin="round"/>
<path d="M11.2401 3C11.8527 3 12.4403 3.24336 12.8735 3.67655C13.3066 4.10974 13.55 4.69727 13.55 5.30989V6.46483H8.93024V5.30989C8.93024 4.69727 9.1736 4.10974 9.60679 3.67655C10.04 3.24336 10.6275 3 11.2401 3Z" stroke="#7BB43F" stroke-width="3" stroke-linecap="round" stroke-linejoin="round"/>
<circle cx="22.5" cy="3.5" r="3.5" fill="#FF0000"/>
</svg>
