<svg width="22" height="24" viewBox="0 0 22 24" fill="none" xmlns="http://www.w3.org/2000/svg">
<path d="M11.0042 8.73239C10.228 8.73239 9.50114 9.04354 8.95078 9.6122C8.40303 10.1809 8.0993 10.9319 8.0993 11.7339C8.0993 12.536 8.40303 13.287 8.95078 13.8557C9.50114 14.4217 10.228 14.7355 11.0042 14.7355C11.7804 14.7355 12.5073 14.4217 13.0577 13.8557C13.6054 13.287 13.9092 12.536 13.9092 11.7339C13.9092 10.9319 13.6054 10.1809 13.0577 9.6122C12.7889 9.33232 12.4689 9.11041 12.1164 8.95937C11.7639 8.80834 11.3858 8.73118 11.0042 8.73239ZM21.7075 15.0493L20.0098 13.5499C20.0902 13.0402 20.1318 12.5199 20.1318 12.0022C20.1318 11.4845 20.0902 10.9614 20.0098 10.4545L21.7075 8.95502C21.8358 8.84158 21.9276 8.69048 21.9707 8.52182C22.0138 8.35316 22.0063 8.17494 21.949 8.01084L21.9256 7.9411C21.4584 6.59104 20.7582 5.33963 19.8592 4.2475L19.8125 4.19117C19.7033 4.05853 19.5578 3.96319 19.3951 3.9177C19.2325 3.87221 19.0603 3.87871 18.9013 3.93635L16.7933 4.71155C16.0145 4.05169 15.1474 3.53131 14.2077 3.1692L13.8001 0.891881C13.7694 0.720324 13.6888 0.562495 13.5692 0.439363C13.4496 0.316231 13.2965 0.233624 13.1303 0.202517L13.0603 0.189106C11.7103 -0.0630352 10.2877 -0.0630352 8.93781 0.189106L8.86771 0.202517C8.70156 0.233624 8.5485 0.316231 8.42887 0.439363C8.30924 0.562495 8.22869 0.720324 8.19794 0.891881L7.78778 3.17993C6.85692 3.54493 5.98977 4.06404 5.22033 4.71691L3.0968 3.93635C2.93784 3.87825 2.76553 3.87152 2.60277 3.91703C2.44001 3.96255 2.29451 4.05817 2.1856 4.19117L2.13888 4.2475C1.24142 5.3408 0.54148 6.5919 0.0724573 7.9411L0.0490932 8.01084C-0.0677269 8.34613 0.0283253 8.72166 0.290522 8.95502L2.00907 10.4706C1.9286 10.9748 1.88966 11.4898 1.88966 11.9995C1.88966 12.5145 1.9286 13.0295 2.00907 13.5284L0.295713 15.044C0.16746 15.1574 0.075667 15.3085 0.032541 15.4772C-0.010585 15.6458 -0.00300088 15.824 0.0542851 15.9881L0.0776492 16.0579C0.547526 17.4071 1.24066 18.6544 2.14407 19.7515L2.19079 19.8078C2.29997 19.9404 2.44547 20.0358 2.60813 20.0813C2.7708 20.1268 2.94298 20.1203 3.10199 20.0626L5.22552 19.2821C5.99913 19.9392 6.861 20.4596 7.79297 20.8191L8.20314 23.1071C8.23389 23.2787 8.31443 23.4365 8.43406 23.5596C8.55369 23.6828 8.70675 23.7654 8.8729 23.7965L8.943 23.8099C10.3062 24.0634 11.7022 24.0634 13.0654 23.8099L13.1355 23.7965C13.3017 23.7654 13.4548 23.6828 13.5744 23.5596C13.694 23.4365 13.7746 23.2787 13.8053 23.1071L14.2129 20.8298C15.1526 20.465 16.0197 19.9473 16.7985 19.2874L18.9065 20.0626C19.0654 20.1207 19.2377 20.1275 19.4005 20.0819C19.5632 20.0364 19.7087 19.9408 19.8176 19.8078L19.8644 19.7515C20.7678 18.649 21.4609 17.4071 21.9308 16.0579L21.9542 15.9881C22.0658 15.6555 21.9697 15.2827 21.7075 15.0493ZM11.0042 16.4495C8.4835 16.4495 6.44045 14.3385 6.44045 11.7339C6.44045 9.12938 8.4835 7.01837 11.0042 7.01837C13.5249 7.01837 15.568 9.12938 15.568 11.7339C15.568 14.3385 13.5249 16.4495 11.0042 16.4495Z" fill="#808080"/>
</svg>
