<svg width="26" height="26" viewBox="0 0 26 26" fill="none" xmlns="http://www.w3.org/2000/svg">
<path fill-rule="evenodd" clip-rule="evenodd" d="M6.5 2.16667C5.63805 2.16667 4.8114 2.50908 4.2019 3.11857C3.59241 3.72807 3.25 4.55472 3.25 5.41667V20.5833C3.25 21.4453 3.59241 22.2719 4.2019 22.8814C4.8114 23.4909 5.63805 23.8333 6.5 23.8333H13C13.862 23.8333 14.6886 23.4909 15.2981 22.8814C15.9076 22.2719 16.25 21.4453 16.25 20.5833V5.41667C16.25 4.55472 15.9076 3.72807 15.2981 3.11857C14.6886 2.50908 13.862 2.16667 13 2.16667H6.5ZM17.6507 7.90075C17.8539 7.69766 18.1294 7.58357 18.4167 7.58357C18.7039 7.58357 18.9794 7.69766 19.1826 7.90075L23.5159 12.2341C23.719 12.4372 23.8331 12.7127 23.8331 13C23.8331 13.2873 23.719 13.5628 23.5159 13.7659L19.1826 18.0993C18.9783 18.2966 18.7046 18.4058 18.4206 18.4033C18.1365 18.4009 17.8648 18.2869 17.6639 18.0861C17.4631 17.8852 17.3492 17.6135 17.3467 17.3294C17.3442 17.0454 17.4534 16.7717 17.6507 16.5674L20.1348 14.0833H10.8333C10.546 14.0833 10.2705 13.9692 10.0673 13.766C9.86414 13.5629 9.75 13.2873 9.75 13C9.75 12.7127 9.86414 12.4371 10.0673 12.234C10.2705 12.0308 10.546 11.9167 10.8333 11.9167H20.1348L17.6507 9.43259C17.4477 9.22943 17.3336 8.95393 17.3336 8.66667C17.3336 8.37941 17.4477 8.10391 17.6507 7.90075Z" fill="#808080"/>
</svg>
