<svg width="14" height="11" viewBox="0 0 14 11" fill="none" xmlns="http://www.w3.org/2000/svg">
<path d="M1.575 0C1.15728 0 0.756677 0.162974 0.461307 0.453069C0.165937 0.743165 0 1.13662 0 1.54688V3.26562C0 3.67588 0.165937 4.06934 0.461307 4.35943C0.756677 4.64953 1.15728 4.8125 1.575 4.8125H3.325C3.74272 4.8125 4.14332 4.64953 4.43869 4.35943C4.73406 4.06934 4.9 3.67588 4.9 3.26562V1.54688C4.9 1.13662 4.73406 0.743165 4.43869 0.453069C4.14332 0.162974 3.74272 0 3.325 0H1.575ZM6.475 0.6875C6.33576 0.6875 6.20223 0.741825 6.10377 0.838523C6.00531 0.935221 5.95 1.06637 5.95 1.20312C5.95 1.33988 6.00531 1.47103 6.10377 1.56773C6.20223 1.66443 6.33576 1.71875 6.475 1.71875H13.475C13.6142 1.71875 13.7478 1.66443 13.8462 1.56773C13.9447 1.47103 14 1.33988 14 1.20312C14 1.06637 13.9447 0.935221 13.8462 0.838523C13.7478 0.741825 13.6142 0.6875 13.475 0.6875H6.475ZM6.475 2.75C6.33576 2.75 6.20223 2.80432 6.10377 2.90102C6.00531 2.99772 5.95 3.12887 5.95 3.26562C5.95 3.40238 6.00531 3.53353 6.10377 3.63023C6.20223 3.72693 6.33576 3.78125 6.475 3.78125H11.375C11.5142 3.78125 11.6478 3.72693 11.7462 3.63023C11.8447 3.53353 11.9 3.40238 11.9 3.26562C11.9 3.12887 11.8447 2.99772 11.7462 2.90102C11.6478 2.80432 11.5142 2.75 11.375 2.75H6.475ZM1.575 6.1875C1.15728 6.1875 0.756677 6.35047 0.461307 6.64057C0.165937 6.93066 0 7.32412 0 7.73438V9.45312C0 9.65626 0.0407386 9.85741 0.11989 10.0451C0.199041 10.2328 0.315055 10.4033 0.461307 10.5469C0.607559 10.6906 0.781186 10.8045 0.972274 10.8823C1.16336 10.96 1.36817 11 1.575 11H3.325C3.53183 11 3.73664 10.96 3.92773 10.8823C4.11881 10.8045 4.29244 10.6906 4.43869 10.5469C4.58495 10.4033 4.70096 10.2328 4.78011 10.0451C4.85926 9.85741 4.9 9.65626 4.9 9.45312V7.73438C4.9 7.32412 4.73406 6.93066 4.43869 6.64057C4.14332 6.35047 3.74272 6.1875 3.325 6.1875H1.575ZM6.475 6.875C6.33576 6.875 6.20223 6.92933 6.10377 7.02602C6.00531 7.12272 5.95 7.25387 5.95 7.39062C5.95 7.52738 6.00531 7.65853 6.10377 7.75523C6.20223 7.85192 6.33576 7.90625 6.475 7.90625H13.475C13.6142 7.90625 13.7478 7.85192 13.8462 7.75523C13.9447 7.65853 14 7.52738 14 7.39062C14 7.25387 13.9447 7.12272 13.8462 7.02602C13.7478 6.92933 13.6142 6.875 13.475 6.875H6.475ZM6.475 8.9375C6.33576 8.9375 6.20223 8.99182 6.10377 9.08852C6.00531 9.18522 5.95 9.31637 5.95 9.45312C5.95 9.58988 6.00531 9.72103 6.10377 9.81773C6.20223 9.91443 6.33576 9.96875 6.475 9.96875H11.375C11.5142 9.96875 11.6478 9.91443 11.7462 9.81773C11.8447 9.72103 11.9 9.58988 11.9 9.45312C11.9 9.31637 11.8447 9.18522 11.7462 9.08852C11.6478 8.99182 11.5142 8.9375 11.375 8.9375H6.475Z" fill="#1B6FBC"/>
</svg>
