<svg width="11" height="14" viewBox="0 0 11 14" fill="none" xmlns="http://www.w3.org/2000/svg">
<path d="M10.3434 3.57161C10.6033 3.3016 10.7463 2.94301 10.7463 2.56156C10.7463 2.18011 10.6033 1.82152 10.3434 1.55151L9.25306 0.418593C8.99319 0.148579 8.64806 0 8.28094 0C7.91381 0 7.56869 0.148579 7.3095 0.417879L0 7.98898V11.1427H3.03394L10.3434 3.57161ZM8.28094 1.42864L9.372 2.56085L8.27888 3.69233L7.1885 2.56013L8.28094 1.42864ZM1.375 9.71407V8.58187L6.215 3.56875L7.30538 4.70167L2.46606 9.71407H1.375ZM0 12.5714H11V14H0V12.5714Z" fill="white"/>
</svg>
