<svg width="24" height="25" viewBox="0 0 24 25" fill="none" xmlns="http://www.w3.org/2000/svg">
<rect width="24" height="25" fill="#F5F5F5"/>
<g id="Pelanggan - Daftar Pelanggan">
<rect width="1440" height="1298" transform="translate(-37 -391)" fill="url(#paint0_linear_0_1)"/>
<g id="Rectangle 261">
<mask id="path-1-inside-1_0_1" fill="white">
<path d="M-37 -391H275V907H-37V-391Z"/>
</mask>
<path d="M-37 -391H275V907H-37V-391Z" fill="white"/>
<path d="M274.5 -391V907H275.5V-391H274.5Z" fill="#D9D9D9" mask="url(#path-1-inside-1_0_1)"/>
</g>
<rect id="Rectangle 771" x="-37" y="-12" width="312" height="51" fill="white"/>
<g id="Group">
<path id="Vector" d="M7.09011 17.966C9.12145 17.966 10.7682 16.3193 10.7682 14.288C10.7682 12.2566 9.12145 10.6099 7.09011 10.6099C5.05878 10.6099 3.41206 12.2566 3.41206 14.288C3.41206 16.3193 5.05878 17.966 7.09011 17.966Z" stroke="#D9D9D9" stroke-width="3" stroke-linecap="round" stroke-linejoin="round"/>
<path id="Vector_2" d="M16.8982 9.79263C18.9296 9.79263 20.5763 8.14591 20.5763 6.11457C20.5763 4.08324 18.9296 2.43652 16.8982 2.43652C14.8669 2.43652 13.2202 4.08324 13.2202 6.11457C13.2202 8.14591 14.8669 9.79263 16.8982 9.79263Z" stroke="#D9D9D9" stroke-width="3" stroke-linecap="round" stroke-linejoin="round"/>
<path id="Vector_3" d="M11.5855 14.6965C11.5855 13.0618 12.8115 9.79243 16.8982 9.79243C20.9849 9.79243 22.211 13.0618 22.211 14.6965M1.77734 22.8699C1.77734 21.2353 3.00336 17.9659 7.09008 17.9659C11.1768 17.9659 12.4028 21.2353 12.4028 22.8699" stroke="#D9D9D9" stroke-width="3" stroke-linecap="round" stroke-linejoin="round"/>
</g>
</g>
<defs>
<linearGradient id="paint0_linear_0_1" x1="720" y1="0" x2="720" y2="1298" gradientUnits="userSpaceOnUse">
<stop offset="0.0520833" stop-color="#F8F8F8"/>
<stop offset="0.552083" stop-color="#EDEFEB"/>
<stop offset="0.8125" stop-color="#EEF3E9"/>
<stop offset="1" stop-color="#DBE4D1"/>
</linearGradient>
</defs>
</svg>
