<svg width="15" height="14" viewBox="0 0 15 14" fill="none" xmlns="http://www.w3.org/2000/svg">
<path d="M12.8256 0.703373L2.56983 1.31896C2.1655 1.34397 1.77873 1.49307 1.46224 1.74594C1.14575 1.99881 0.914944 2.34313 0.801299 2.73197C0.687653 3.1208 0.696695 3.53522 0.82719 3.91873C0.957686 4.30224 1.20329 4.63617 1.5305 4.87499L4.65723 7.13993C4.7308 7.19586 4.79248 7.26589 4.83869 7.34592C4.8849 7.42595 4.9147 7.51439 4.92635 7.60607L5.32448 11.4464C5.35881 11.7727 5.47414 12.0853 5.66001 12.3557C5.84587 12.6262 6.09637 12.8459 6.38873 12.9949C6.6811 13.1439 7.00607 13.2174 7.3341 13.2089C7.66213 13.2004 7.98283 13.11 8.26706 12.946C8.53169 12.7897 8.75801 12.5761 8.92945 12.321L14.5905 3.74702C14.7908 3.44203 14.9024 3.08738 14.9129 2.72265C14.9234 2.35791 14.8323 1.99743 14.6499 1.68143C14.4674 1.36543 14.2008 1.10634 13.8797 0.933054C13.5585 0.759772 13.1956 0.679117 12.8313 0.700091L12.8256 0.703373ZM13.4914 3.02486L7.83036 11.5988C7.75483 11.7094 7.64731 11.7941 7.52223 11.8418C7.39715 11.8895 7.26048 11.8978 7.13055 11.8656C7.00062 11.8334 6.88364 11.7622 6.7953 11.6617C6.70695 11.5611 6.65147 11.4359 6.63629 11.3029L6.23247 7.46591C6.22652 7.415 6.2176 7.36447 6.20574 7.3146L10.1224 5.0533C10.2732 4.96626 10.3832 4.82289 10.4282 4.65474C10.4733 4.48658 10.4497 4.30741 10.3627 4.15665C10.2756 4.00588 10.1323 3.89587 9.9641 3.85082C9.79595 3.80576 9.61678 3.82935 9.46602 3.91639L5.54935 6.17768C5.51208 6.14248 5.47279 6.10949 5.43166 6.07888L2.31062 3.81066C2.20304 3.73101 2.12238 3.62037 2.07945 3.49358C2.03653 3.36679 2.0334 3.2299 2.07047 3.10128C2.10755 2.97266 2.18307 2.85845 2.2869 2.77396C2.39073 2.68947 2.51791 2.63875 2.65138 2.62859L12.9072 2.01301C13.0278 2.00695 13.1478 2.03431 13.2539 2.09207C13.36 2.14984 13.4481 2.23576 13.5085 2.34038C13.5689 2.44501 13.5993 2.56427 13.5963 2.68504C13.5932 2.80581 13.5569 2.9234 13.4914 3.02486Z" fill="white"/>
</svg>
