<svg width="17" height="18" viewBox="0 0 17 18" fill="none" xmlns="http://www.w3.org/2000/svg">
<path d="M0.944444 10H6.61111C6.86159 10 7.10182 9.89464 7.27893 9.70711C7.45605 9.51957 7.55556 9.26522 7.55556 9V1C7.55556 0.734784 7.45605 0.48043 7.27893 0.292893C7.10182 0.105357 6.86159 0 6.61111 0H0.944444C0.693962 0 0.453739 0.105357 0.276621 0.292893C0.0995036 0.48043 0 0.734784 0 1V9C0 9.26522 0.0995036 9.51957 0.276621 9.70711C0.453739 9.89464 0.693962 10 0.944444 10ZM0 17C0 17.2652 0.0995036 17.5196 0.276621 17.7071C0.453739 17.8946 0.693962 18 0.944444 18H6.61111C6.86159 18 7.10182 17.8946 7.27893 17.7071C7.45605 17.5196 7.55556 17.2652 7.55556 17V13C7.55556 12.7348 7.45605 12.4804 7.27893 12.2929C7.10182 12.1054 6.86159 12 6.61111 12H0.944444C0.693962 12 0.453739 12.1054 0.276621 12.2929C0.0995036 12.4804 0 12.7348 0 13V17ZM9.44444 17C9.44444 17.2652 9.54395 17.5196 9.72107 17.7071C9.89818 17.8946 10.1384 18 10.3889 18H16.0556C16.306 18 16.5463 17.8946 16.7234 17.7071C16.9005 17.5196 17 17.2652 17 17V10C17 9.73478 16.9005 9.48043 16.7234 9.29289C16.5463 9.10536 16.306 9 16.0556 9H10.3889C10.1384 9 9.89818 9.10536 9.72107 9.29289C9.54395 9.48043 9.44444 9.73478 9.44444 10V17ZM10.3889 7H16.0556C16.306 7 16.5463 6.89464 16.7234 6.70711C16.9005 6.51957 17 6.26522 17 6V1C17 0.734784 16.9005 0.48043 16.7234 0.292893C16.5463 0.105357 16.306 0 16.0556 0H10.3889C10.1384 0 9.89818 0.105357 9.72107 0.292893C9.54395 0.48043 9.44444 0.734784 9.44444 1V6C9.44444 6.26522 9.54395 6.51957 9.72107 6.70711C9.89818 6.89464 10.1384 7 10.3889 7Z" fill="#C9CDCF"/>
</svg>
