<svg width="23" height="29" viewBox="0 0 23 29" fill="none" xmlns="http://www.w3.org/2000/svg">
<rect width="23" height="29" fill="#F5F5F5"/>
<g id="Pelanggan - Daftar Pelanggan">
<rect width="1440" height="1298" transform="translate(-38 -830)" fill="url(#paint0_linear_0_1)"/>
<g id="Rectangle 261">
<mask id="path-1-inside-1_0_1" fill="white">
<path d="M-38 -830H274V468H-38V-830Z"/>
</mask>
<path d="M-38 -830H274V468H-38V-830Z" fill="white"/>
<path d="M273.5 -830V468H274.5V-830H273.5Z" fill="#D9D9D9" mask="url(#path-1-inside-1_0_1)"/>
</g>
<rect id="Rectangle 543" x="-38" y="-12" width="312" height="51" fill="white"/>
<g id="Group 577">
<path id="Vector" d="M12.6646 26.4203L0.347656 14.1033V16.6196C0.347656 17.2864 0.61186 17.928 1.08994 18.3935L10.8907 28.1942C11.872 29.1755 13.4698 29.1755 14.4511 28.1942L22.264 20.3813C23.2453 19.4 23.2453 17.8022 22.264 16.8209L12.6646 26.4203Z" fill="#C9CDCF"/>
<path id="Vector_2" d="M10.8907 21.9038C11.3813 22.3944 12.023 22.6461 12.6646 22.6461C13.3062 22.6461 13.9479 22.3944 14.4385 21.9038L22.2514 14.0909C23.2328 13.1095 23.2328 11.5117 22.2514 10.5304L12.4507 0.729706C11.9852 0.264204 11.3436 0 10.6768 0H2.86388C1.47996 0 0.347656 1.1323 0.347656 2.51623V10.3291C0.347656 10.9959 0.61186 11.6376 1.08994 12.1031L10.8907 21.9038ZM2.86388 2.51623H10.6768L20.4775 12.3169L12.6646 20.1298L2.86388 10.3291V2.51623Z" fill="#C9CDCF"/>
<path id="Vector_3" d="M5.69636 6.91964C6.56491 6.91964 7.269 6.21554 7.269 5.347C7.269 4.47845 6.56491 3.77435 5.69636 3.77435C4.82781 3.77435 4.12372 4.47845 4.12372 5.347C4.12372 6.21554 4.82781 6.91964 5.69636 6.91964Z" fill="#C9CDCF"/>
</g>
</g>
<defs>
<linearGradient id="paint0_linear_0_1" x1="720" y1="0" x2="720" y2="1298" gradientUnits="userSpaceOnUse">
<stop offset="0.0520833" stop-color="#F8F8F8"/>
<stop offset="0.552083" stop-color="#EDEFEB"/>
<stop offset="0.8125" stop-color="#EEF3E9"/>
<stop offset="1" stop-color="#DBE4D1"/>
</linearGradient>
</defs>
</svg>
