<svg width="18" height="16" viewBox="0 0 18 16" fill="none" xmlns="http://www.w3.org/2000/svg">
<path d="M15.4583 0.668529L3.09732 1.41047C2.61 1.44062 2.14383 1.62033 1.76238 1.9251C1.38093 2.22987 1.10275 2.64487 0.965776 3.11352C0.828803 3.58217 0.8397 4.08165 0.996982 4.54388C1.15426 5.00611 1.45028 5.40858 1.84466 5.69643L5.61319 8.42627C5.70185 8.49369 5.7762 8.57809 5.83189 8.67455C5.88759 8.77101 5.9235 8.8776 5.93755 8.98809L6.4174 13.6167C6.45877 14.01 6.59778 14.3867 6.82179 14.7127C7.04581 15.0386 7.34772 15.3034 7.7001 15.483C8.05248 15.6626 8.44415 15.7513 8.83952 15.741C9.23489 15.7307 9.62141 15.6218 9.96398 15.4241C10.2829 15.2357 10.5557 14.9783 10.7623 14.6708L17.5853 4.33693C17.8268 3.96933 17.9613 3.54189 17.9739 3.10229C17.9866 2.66268 17.8768 2.22821 17.6569 1.84735C17.4371 1.46648 17.1157 1.15421 16.7286 0.945356C16.3416 0.736505 15.9042 0.639295 15.4651 0.664573L15.4583 0.668529ZM16.2606 3.46654L9.43764 13.8004C9.34661 13.9336 9.21702 14.0358 9.06626 14.0933C8.91551 14.1507 8.75079 14.1607 8.59419 14.1219C8.43759 14.0831 8.2966 13.9974 8.19012 13.8761C8.08364 13.7549 8.01677 13.6041 7.99847 13.4438L7.51177 8.81917C7.5046 8.7578 7.49384 8.6969 7.47955 8.63679L12.2002 5.91134C12.3819 5.80643 12.5145 5.63363 12.5688 5.43096C12.6231 5.22829 12.5947 5.01235 12.4897 4.83064C12.3848 4.64892 12.212 4.51633 12.0094 4.46203C11.8067 4.40772 11.5907 4.43615 11.409 4.54106L6.68842 7.26651C6.64351 7.22408 6.59615 7.18432 6.54658 7.14743L2.78491 4.41362C2.65524 4.31763 2.55802 4.18428 2.50629 4.03146C2.45455 3.87864 2.45078 3.71366 2.49547 3.55864C2.54016 3.40361 2.63117 3.26596 2.75632 3.16413C2.88146 3.0623 3.03474 3.00117 3.19561 2.98893L15.5565 2.24699C15.702 2.23969 15.8466 2.27266 15.9745 2.34228C16.1023 2.4119 16.2085 2.51546 16.2813 2.64156C16.3541 2.76765 16.3907 2.9114 16.3871 3.05696C16.3834 3.20252 16.3397 3.34425 16.2606 3.46654Z" fill="white"/>
</svg>
