<svg width="21" height="21" viewBox="0 0 21 21" fill="none" xmlns="http://www.w3.org/2000/svg">
<path d="M1.44141 3.49814H5.38993H1.44141ZM19.2098 3.49814H9.33846H19.2098ZM1.44141 10.4081H13.287H1.44141ZM19.2098 10.4081H17.2355H19.2098ZM1.44141 17.318H3.41567H1.44141ZM19.2098 17.318H7.36419H19.2098Z" fill="#DADADA"/>
<path d="M1.44141 3.49814H5.38993M19.2098 3.49814H9.33846M1.44141 10.4081H13.287M19.2098 10.4081H17.2355M1.44141 17.318H3.41567M19.2098 17.318H7.36419" stroke="#DADADA" stroke-width="2.5" stroke-linecap="round"/>
<path d="M7.3642 5.47245C8.45456 5.47245 9.33846 4.58854 9.33846 3.49819C9.33846 2.40783 8.45456 1.52393 7.3642 1.52393C6.27385 1.52393 5.38994 2.40783 5.38994 3.49819C5.38994 4.58854 6.27385 5.47245 7.3642 5.47245Z" fill="#DADADA" stroke="#DADADA" stroke-width="2.5" stroke-linecap="round"/>
<path d="M15.2612 12.3824C16.3516 12.3824 17.2355 11.4985 17.2355 10.4082C17.2355 9.3178 16.3516 8.43389 15.2612 8.43389C14.1709 8.43389 13.287 9.3178 13.287 10.4082C13.287 11.4985 14.1709 12.3824 15.2612 12.3824Z" fill="#DADADA" stroke="#DADADA" stroke-width="2.5" stroke-linecap="round"/>
<path d="M5.38994 19.2923C6.4803 19.2923 7.3642 18.4084 7.3642 17.318C7.3642 16.2277 6.4803 15.3438 5.38994 15.3438C4.29959 15.3438 3.41568 16.2277 3.41568 17.318C3.41568 18.4084 4.29959 19.2923 5.38994 19.2923Z" fill="#DADADA" stroke="#DADADA" stroke-width="2.5" stroke-linecap="round"/>
</svg>
