<svg width="13" height="15" viewBox="0 0 13 15" fill="none" xmlns="http://www.w3.org/2000/svg">
<path d="M1 3.88889H12M11.3125 3.88889L10.7164 12.6581C10.6917 13.0225 10.5365 13.3636 10.282 13.6126C10.0275 13.8616 9.69265 14 9.34488 14H3.65512C3.30735 14 2.97248 13.8616 2.71798 13.6126C2.46348 13.3636 2.30825 13.0225 2.28356 12.6581L1.6875 3.88889H11.3125ZM5.125 6.77778V11.1111V6.77778ZM7.875 6.77778V11.1111V6.77778ZM8.5625 3.88889V1.72222C8.5625 1.53068 8.49007 1.34698 8.36114 1.21153C8.2322 1.07609 8.05734 1 7.875 1H5.125C4.94266 1 4.7678 1.07609 4.63886 1.21153C4.50993 1.34698 4.4375 1.53068 4.4375 1.72222V3.88889H8.5625Z" stroke="white" stroke-width="1.3" stroke-linecap="round" stroke-linejoin="round"/>
</svg>
