<svg width="29" height="17" viewBox="0 0 29 17" fill="none" xmlns="http://www.w3.org/2000/svg">
<path d="M26.2209 1.92849e-07C25.789 0.000153112 25.3631 0.110941 24.977 0.323569C24.591 0.536196 24.2553 0.844807 23.9967 1.2249C23.7381 1.60499 23.5637 2.0461 23.4874 2.5132C23.411 2.98029 23.4348 3.46052 23.5569 3.91575L19.2465 8.65182C18.678 8.44372 18.0635 8.44372 17.4951 8.65182L14.2996 5.14025C14.4047 4.68935 14.4147 4.218 14.3286 3.76224C14.2426 3.30647 14.0629 2.87836 13.8032 2.51063C13.5435 2.1429 13.2107 1.84529 12.8303 1.64056C12.4499 1.43583 12.032 1.32939 11.6084 1.32939C11.1848 1.32939 10.7669 1.43583 10.3865 1.64056C10.0061 1.84529 9.67329 2.1429 9.41361 2.51063C9.15392 2.87836 8.97419 3.30647 8.88815 3.76224C8.80212 4.218 8.81206 4.68935 8.91721 5.14025L3.57289 11.0092C2.97956 10.8162 2.34461 10.846 1.76841 11.0939C1.19221 11.3418 0.707627 11.7937 0.391254 12.3781C0.0748804 12.9625 -0.0552364 13.6461 0.0214693 14.3208C0.0981749 14.9956 0.377328 15.623 0.814805 16.1039C1.25228 16.5848 1.82313 16.8918 2.43712 16.9763C3.0511 17.0608 3.67321 16.918 4.2051 16.5705C4.737 16.2231 5.14834 15.6907 5.37411 15.0576C5.59988 14.4245 5.62721 13.7267 5.45177 13.0746L10.7284 7.27666C11.2969 7.4849 11.9114 7.4849 12.4799 7.27666L15.676 10.7889C15.5708 11.2398 15.5609 11.7111 15.6469 12.1669C15.7329 12.6227 15.9127 13.0508 16.1724 13.4185C16.4321 13.7862 16.7648 14.0839 17.1452 14.2886C17.5256 14.4933 17.9436 14.5998 18.3671 14.5998C18.7907 14.5998 19.2087 14.4933 19.5891 14.2886C19.9695 14.0839 20.3022 13.7862 20.5619 13.4185C20.8216 13.0508 21.0014 12.6227 21.0874 12.1669C21.1734 11.7111 21.1635 11.2398 21.0583 10.7889L25.4357 5.98114C25.8179 6.10504 26.2198 6.13715 26.6143 6.07531C27.0087 6.01346 27.3864 5.85911 27.7218 5.62271C28.0572 5.38632 28.3423 5.07341 28.558 4.70523C28.7736 4.33705 28.9147 3.9222 28.9715 3.48884C29.0284 3.05548 28.9998 2.61374 28.8877 2.1936C28.7755 1.77346 28.5824 1.38474 28.3215 1.05382C28.0606 0.722903 27.738 0.457527 27.3756 0.275699C27.0131 0.0938709 26.6193 -0.000155425 26.2209 1.92849e-07Z" fill="#C8D4D0"/>
</svg>
