<svg width="26" height="28" viewBox="0 0 26 28" fill="none" xmlns="http://www.w3.org/2000/svg">
<rect width="26" height="28" fill="#F5F5F5"/>
<g id="Pelanggan - Daftar Pelanggan">
<rect width="1440" height="1298" transform="translate(-35 -523)" fill="url(#paint0_linear_0_1)"/>
<g id="Rectangle 261">
<mask id="path-1-inside-1_0_1" fill="white">
<path d="M-35 -523H277V775H-35V-523Z"/>
</mask>
<path d="M-35 -523H277V775H-35V-523Z" fill="white"/>
<path d="M276.5 -523V775H277.5V-523H276.5Z" fill="#D9D9D9" mask="url(#path-1-inside-1_0_1)"/>
</g>
<rect id="Rectangle 682" x="-35" y="-11" width="312" height="51" fill="white"/>
<path id="Vector" d="M16.2786 19.2487V19.2414C16.2786 18.8945 16.3994 18.6214 16.5922 18.4352C16.7833 18.2508 17.0359 18.1603 17.2857 18.1603C17.5355 18.1603 17.7882 18.2508 17.9792 18.4352C18.172 18.6214 18.2929 18.8945 18.2929 19.2414V19.2466V19.2518V19.2571V19.2624V19.2678V19.2731V19.2786V19.2841V19.2896V19.2951V19.3007V19.3064V19.312V19.3178V19.3235V19.3293V19.3351V19.341V19.3469V19.3529V19.3589V19.3649V19.3709V19.3771V19.3832V19.3894V19.3956V19.4018V19.4081V19.4145V19.4208V19.4272V19.4337V19.4401V19.4466V19.4532V19.4598V19.4664V19.473V19.4797V19.4865V19.4932V19.5V19.5069V19.5137V19.5206V19.5276V19.5345V19.5416V19.5486V19.5557V19.5628V19.5699V19.5771V19.5843V19.5916V19.5989V19.6062V19.6135V19.6209V19.6283V19.6358V19.6432V19.6508V19.6583V19.6659V19.6735V19.6811V19.6888V19.6965V19.7042V19.712V19.7198V19.7276V19.7355V19.7434V19.7513V19.7593V19.7673V19.7753V19.7833V19.7914V19.7995V19.8077V19.8158V19.824V19.8322V19.8405V19.8488V19.8571V19.8654V19.8738V19.8822V19.8907V19.8991V19.9076V19.9161V19.9247V19.9332V19.9418V19.9505V19.9591V19.9678V19.9765V19.9852V19.994V20.0028V20.0116V20.0204V20.0293V20.0382V20.0471V20.0561V20.0651V20.0741V20.0831V20.0921V20.1012V20.1103V20.1194V20.1286V20.1378V20.147V20.1562V20.1655V20.1747V20.184V20.1933V20.2027V20.2121V20.2215V20.2309V20.2403V20.2498V20.2593V20.2688V20.2783V20.2879V20.2975V20.3071V20.3167V20.3263V20.336V20.3457V20.3554V20.3651V20.3749V20.3847V20.3945V20.4043V20.4141V20.424V20.4339V20.4438V20.4537V20.4636V20.4736V20.4836V20.4936V20.5036V20.5137V20.5237V20.5338V20.5439V20.554V20.5642V20.5743V20.5845V20.5947V20.6049V20.6151V20.6254V20.6357V20.6459V20.6562V20.6666V20.6769V20.6873V20.6976V20.708V20.7184V20.7289V20.7393V20.7498V20.7602V20.7707V20.7812V20.7917V20.8023V20.8128V20.8234V20.834V20.8446V20.8552V20.8658V20.8765V20.8871V20.8978V20.9085V20.9192V20.9299V20.9407V20.9514V20.9622V20.973V20.9837V20.9945V21.0054V21.0162V21.027V21.0379V21.0487V21.0596V21.0705V21.0814V21.0923V21.1033V21.1142V21.1252V21.1361V21.1471V21.1581V21.1691V21.1801V21.1911V21.2022V21.2132V21.2242V21.2353V21.2464V21.2575V21.2686V21.2797V21.2908V21.3019V21.313V21.3242V21.3353V21.3465V21.3577V21.3689V21.38V21.3912V21.4024V21.4137V21.4249V21.4361V21.4473V21.4586V21.4698V21.4811V21.4924V21.5037V21.5149V21.5262V21.5375V21.5488V21.5601V21.5715V21.5828V21.5941V21.6054V21.6168V21.6281V21.6395V21.6509V21.6622V21.6736V21.685V21.6963V21.7077V21.7191V21.7305V21.7419V21.7533V21.7647V21.7761V21.7875V21.799V21.8104V21.8218V21.8332V21.8447V21.8561V21.8675V21.879V21.8904V21.9019V21.9133V21.9248V21.9362V21.9477V21.9592V21.9706V21.9821V21.9935V22.005V22.0165V22.0279V22.0394V22.0509V22.0623V22.0738V22.0853V22.0968V22.1082V22.1197V22.1312V22.1426V22.1541V22.1656V22.1771V22.1885V22.2V22.2115V22.2229V22.2344V22.2459V22.2573V22.2688V22.2802V22.2917V22.3031V22.3146V22.326V22.3375V22.3489V22.3604V22.3718V22.3832V22.3947V22.4061V22.4175V22.429V22.4404V22.4518V22.4632V22.4746V22.486V22.4974V22.5088V22.5202V22.5316V22.543V22.5543V22.5657V22.5771V22.5884V22.5998V22.6111V22.6225V22.6338V22.6451V22.6565V22.6678V22.6791V22.6904V22.7017V22.713V22.7242V22.7355V22.7468V22.7581V22.7693V22.7806V22.7918V22.803V22.8142V22.8255V22.8367V22.8479V22.859V22.8702V22.8814V22.8925V22.9037V22.9148V22.926V22.9371V22.9482V22.9593V22.9704V22.9815V22.9926V23.0036V23.0147V23.0257V23.0368V23.0478V23.0588V23.0698V23.0808V23.0917V23.1027V23.1137V23.1246V23.1355V23.1464V23.1573V23.1682V23.1791V23.19V23.2008V23.2117V23.2225V23.2333V23.2441V23.2549V23.2657V23.2764V23.2872V23.2979V23.3086V23.3193V23.33V23.3407V23.3513V23.362V23.3726V23.3832V23.3938V23.4044V23.415V23.4255V23.4361V23.4466V23.4571V23.4676V23.478V23.4885V23.4989V23.5094V23.5198V23.5302V23.5405V23.5509V23.5612V23.5715V23.5818V23.5921V23.6024V23.6126V23.6229V23.6331V23.6433V23.6534V23.6636V23.6737V23.6839V23.694V23.704V23.7141V23.7241V23.7342V23.7442V23.7541V23.7641V23.774V23.784V23.7939V23.8037V23.8136V23.8234V23.8333V23.843V23.8528V23.8626V23.8723V23.882V23.8917V23.9014V23.911V23.9206V23.9302V23.9398V23.9494V23.9589V23.9684V23.9779V23.9874V23.9968V24.0062V24.0156V24.025V24.0343V24.0436V24.0529V24.0622V24.0715V24.0807V24.0899V24.099V24.1082V24.1173V24.1264V24.1355V24.1445V24.1536V24.1626V24.1715V24.1805V24.1894V24.1983V24.2072V24.216V24.2248V24.2336V24.2424V24.2511V24.2598V24.2685V24.2771C18.2929 24.7463 18.6732 25.1259 19.1429 25.1259H20.5714C21.0409 25.1259 21.4214 24.7453 21.4214 24.2759V18.3744C21.4214 17.8182 21.8723 17.3672 22.4286 17.3672C22.8191 17.3672 23.1357 17.0506 23.1357 16.6601V12.3448C23.1357 12.1557 23.061 11.9745 22.9283 11.841C22.7956 11.7076 22.6158 11.6328 22.4286 11.6328H17.5071C17.2016 11.6328 16.9196 11.7967 16.7684 12.0623L13.9994 16.9268C13.5584 17.7016 12.4416 17.7016 12.0006 16.9268L9.23156 12.0623C9.08041 11.7967 8.79839 11.6328 8.49285 11.6328H3.57143C3.38416 11.6328 3.20439 11.7076 3.07171 11.841C2.939 11.9745 2.86429 12.1557 2.86429 12.3448V16.6601C2.86429 17.0506 3.18088 17.3672 3.57143 17.3672C4.12766 17.3672 4.57857 17.8182 4.57857 18.3744V24.2759C4.57857 24.7453 4.95913 25.1259 5.42857 25.1259H6.85714C7.32683 25.1259 7.70714 24.7463 7.70714 24.2771V24.2685V24.2598V24.2511V24.2424V24.2336V24.2248V24.216V24.2072V24.1983V24.1894V24.1805V24.1715V24.1626V24.1536V24.1445V24.1355V24.1264V24.1173V24.1082V24.099V24.0899V24.0807V24.0715V24.0622V24.0529V24.0436V24.0343V24.025V24.0156V24.0062V23.9968V23.9874V23.9779V23.9684V23.9589V23.9494V23.9398V23.9302V23.9206V23.911V23.9014V23.8917V23.882V23.8723V23.8626V23.8528V23.843V23.8333V23.8234V23.8136V23.8037V23.7939V23.784V23.774V23.7641V23.7541V23.7442V23.7342V23.7241V23.7141V23.704V23.694V23.6839V23.6737V23.6636V23.6534V23.6433V23.6331V23.6229V23.6126V23.6024V23.5921V23.5818V23.5715V23.5612V23.5509V23.5405V23.5302V23.5198V23.5094V23.4989V23.4885V23.478V23.4676V23.4571V23.4466V23.4361V23.4255V23.415V23.4044V23.3938V23.3832V23.3726V23.362V23.3513V23.3407V23.33V23.3193V23.3086V23.2979V23.2872V23.2764V23.2657V23.2549V23.2441V23.2333V23.2225V23.2117V23.2008V23.19V23.1791V23.1682V23.1573V23.1464V23.1355V23.1246V23.1137V23.1027V23.0917V23.0808V23.0698V23.0588V23.0478V23.0368V23.0257V23.0147V23.0036V22.9926V22.9815V22.9704V22.9593V22.9482V22.9371V22.926V22.9148V22.9037V22.8925V22.8814V22.8702V22.859V22.8479V22.8367V22.8255V22.8142V22.803V22.7918V22.7806V22.7693V22.7581V22.7468V22.7355V22.7242V22.713V22.7017V22.6904V22.6791V22.6678V22.6565V22.6451V22.6338V22.6225V22.6111V22.5998V22.5884V22.5771V22.5657V22.5543V22.543V22.5316V22.5202V22.5088V22.4974V22.486V22.4746V22.4632V22.4518V22.4404V22.429V22.4175V22.4061V22.3947V22.3832V22.3718V22.3604V22.3489V22.3375V22.326V22.3146V22.3031V22.2917V22.2802V22.2688V22.2573V22.2459V22.2344V22.2229V22.2115V22.2V22.1885V22.1771V22.1656V22.1541V22.1426V22.1312V22.1197V22.1082V22.0968V22.0853V22.0738V22.0623V22.0509V22.0394V22.0279V22.0165V22.005V21.9935V21.9821V21.9706V21.9592V21.9477V21.9362V21.9248V21.9133V21.9019V21.8904V21.879V21.8675V21.8561V21.8447V21.8332V21.8218V21.8104V21.799V21.7875V21.7761V21.7647V21.7533V21.7419V21.7305V21.7191V21.7077V21.6963V21.685V21.6736V21.6622V21.6509V21.6395V21.6281V21.6168V21.6054V21.5941V21.5828V21.5715V21.5601V21.5488V21.5375V21.5262V21.5149V21.5037V21.4924V21.4811V21.4698V21.4586V21.4473V21.4361V21.4249V21.4137V21.4024V21.3912V21.38V21.3689V21.3577V21.3465V21.3353V21.3242V21.313V21.3019V21.2908V21.2797V21.2686V21.2575V21.2464V21.2353V21.2242V21.2132V21.2022V21.1911V21.1801V21.1691V21.1581V21.1471V21.1361V21.1252V21.1142V21.1033V21.0923V21.0814V21.0705V21.0596V21.0487V21.0379V21.027V21.0162V21.0054V20.9945V20.9837V20.973V20.9622V20.9514V20.9407V20.9299V20.9192V20.9085V20.8978V20.8871V20.8765V20.8658V20.8552V20.8446V20.834V20.8234V20.8128V20.8023V20.7917V20.7812V20.7707V20.7602V20.7498V20.7393V20.7289V20.7184V20.708V20.6976V20.6873V20.6769V20.6666V20.6562V20.6459V20.6357V20.6254V20.6151V20.6049V20.5947V20.5845V20.5743V20.5642V20.554V20.5439V20.5338V20.5237V20.5137V20.5036V20.4936V20.4836V20.4736V20.4636V20.4537V20.4438V20.4339V20.424V20.4141V20.4043V20.3945V20.3847V20.3749V20.3651V20.3554V20.3457V20.336V20.3263V20.3167V20.3071V20.2975V20.2879V20.2783V20.2688V20.2593V20.2498V20.2403V20.2309V20.2215V20.2121V20.2027V20.1933V20.184V20.1747V20.1655V20.1562V20.147V20.1378V20.1286V20.1194V20.1103V20.1012V20.0921V20.0831V20.0741V20.0651V20.0561V20.0471V20.0382V20.0293V20.0204V20.0116V20.0028V19.994V19.9852V19.9765V19.9678V19.9591V19.9505V19.9418V19.9332V19.9247V19.9161V19.9076V19.8991V19.8907V19.8822V19.8738V19.8654V19.8571V19.8488V19.8405V19.8322V19.824V19.8158V19.8077V19.7995V19.7914V19.7833V19.7753V19.7673V19.7593V19.7513V19.7434V19.7355V19.7276V19.7198V19.712V19.7042V19.6965V19.6888V19.6811V19.6735V19.6659V19.6583V19.6508V19.6432V19.6358V19.6283V19.6209V19.6135V19.6062V19.5989V19.5916V19.5843V19.5771V19.5699V19.5628V19.5557V19.5486V19.5416V19.5345V19.5276V19.5206V19.5137V19.5069V19.5V19.4932V19.4865V19.4797V19.473V19.4664V19.4598V19.4532V19.4466V19.4401V19.4337V19.4272V19.4208V19.4145V19.4081V19.4018V19.3956V19.3894V19.3832V19.3771V19.3709V19.3649V19.3589V19.3529V19.3469V19.341V19.3351V19.3293V19.3235V19.3178V19.312V19.3064V19.3007V19.2951V19.2896V19.2841V19.2786V19.2731V19.2678V19.2624V19.2571V19.2518V19.2466V19.2414C7.70714 18.8945 7.82798 18.6214 8.02081 18.4352C8.21183 18.2508 8.46451 18.1603 8.71429 18.1603C8.96406 18.1603 9.21674 18.2508 9.40776 18.4352C9.60059 18.6214 9.72143 18.8945 9.72143 19.2414L16.2786 19.2487ZM16.2786 19.2487V19.2561M16.2786 19.2487V19.2561M16.2786 19.2561V19.2636M16.2786 19.2561V19.2636M16.2786 19.2636V19.2711M16.2786 19.2636V19.2711M16.2786 19.2711V19.2788M16.2786 19.2711V19.2788M16.2786 19.2788V19.2865M16.2786 19.2788V19.2865M16.2786 19.2865V19.2943M16.2786 19.2865V19.2943M16.2786 19.2943V19.3021M16.2786 19.2943V19.3021M16.2786 19.3021V19.3101M16.2786 19.3021V19.3101M16.2786 19.3101V19.3181M16.2786 19.3101V19.3181M16.2786 19.3181V19.3262M16.2786 19.3181V19.3262M16.2786 19.3262V19.3344M16.2786 19.3262V19.3344M16.2786 19.3344V19.3427M16.2786 19.3344V19.3427M16.2786 19.3427V19.351M16.2786 19.3427V19.351M16.2786 19.351V19.3594M16.2786 19.351V19.3594M16.2786 19.3594V19.3679M16.2786 19.3594V19.3679M16.2786 19.3679V19.3765M16.2786 19.3679V19.3765M16.2786 19.3765V19.3851M16.2786 19.3765V19.3851M16.2786 19.3851V19.3938M16.2786 19.3851V19.3938M16.2786 19.3938V19.4026M16.2786 19.3938V19.4026M16.2786 19.4026V19.4115M16.2786 19.4026V19.4115M16.2786 19.4115V19.4204M16.2786 19.4115V19.4204M16.2786 19.4204V19.4294M16.2786 19.4204V19.4294M16.2786 19.4294V19.4385M16.2786 19.4294V19.4385M16.2786 19.4385V19.4477M16.2786 19.4385V19.4477M16.2786 19.4477V19.4569M16.2786 19.4477V19.4569M16.2786 19.4569V19.4662M16.2786 19.4569V19.4662M16.2786 19.4662V19.4755M16.2786 19.4662V19.4755M16.2786 19.4755V19.485M16.2786 19.4755V19.485M16.2786 19.485V19.4945M16.2786 19.485V19.4945M16.2786 19.4945V19.5041M16.2786 19.4945V19.5041M16.2786 19.5041V19.5137M16.2786 19.5041V19.5137M16.2786 19.5137V19.5234M16.2786 19.5137V19.5234M16.2786 19.5234V19.5332M16.2786 19.5234V19.5332M16.2786 19.5332V19.5431M16.2786 19.5332V19.5431M16.2786 19.5431V19.553M16.2786 19.5431V19.553M16.2786 19.553V19.563M16.2786 19.553V19.563M16.2786 19.563V19.5731M16.2786 19.563V19.5731M16.2786 19.5731V19.5832M16.2786 19.5731V19.5832M16.2786 19.5832V19.5934M16.2786 19.5832V19.5934M16.2786 19.5934V19.6036M16.2786 19.5934V19.6036M16.2786 19.6036V19.614M16.2786 19.6036V19.614M16.2786 19.614V19.6244M16.2786 19.614V19.6244M16.2786 19.6244V19.6348M16.2786 19.6244V19.6348M16.2786 19.6348V19.6453M16.2786 19.6348V19.6453M16.2786 19.6453V19.6559M16.2786 19.6453V19.6559M16.2786 19.6559V19.6666M16.2786 19.6559V19.6666M16.2786 19.6666V19.6773M16.2786 19.6666V19.6773M16.2786 19.6773V19.6881M16.2786 19.6773V19.6881M16.2786 19.6881V19.6989M16.2786 19.6881V19.6989M16.2786 19.6989V19.7098M16.2786 19.6989V19.7098M16.2786 19.7098V19.7208M16.2786 19.7098V19.7208M16.2786 19.7208V19.7318M16.2786 19.7208V19.7318M16.2786 19.7318V19.7429M16.2786 19.7318V19.7429M16.2786 19.7429V19.754M16.2786 19.7429V19.754M16.2786 19.754V19.7653M16.2786 19.754V19.7653M16.2786 19.7653V19.7765M16.2786 19.7653V19.7765M16.2786 19.7765V19.7879M16.2786 19.7765V19.7879M16.2786 19.7879V19.7992M16.2786 19.7879V19.7992M16.2786 19.7992V19.8107M16.2786 19.7992V19.8107M16.2786 19.8107V19.8222M16.2786 19.8107V19.8222M16.2786 19.8222V19.8338M16.2786 19.8222V19.8338M16.2786 19.8338V19.8454M16.2786 19.8338V19.8454M16.2786 19.8454V19.8571M16.2786 19.8454V19.8571M16.2786 19.8571V19.8688M16.2786 19.8571V19.8688M16.2786 19.8688V19.8806M16.2786 19.8688V19.8806M16.2786 19.8806V19.8925M16.2786 19.8806V19.8925M16.2786 19.8925V19.9044M16.2786 19.8925V19.9044M16.2786 19.9044V19.9164M16.2786 19.9044V19.9164M16.2786 19.9164V19.9284M16.2786 19.9164V19.9284M16.2786 19.9284V19.9405M16.2786 19.9284V19.9405M16.2786 19.9405V19.9526M16.2786 19.9405V19.9526M16.2786 19.9526V19.9648M16.2786 19.9526V19.9648M16.2786 19.9648V19.977M16.2786 19.9648V19.977M16.2786 19.977V19.9893M16.2786 19.977V19.9893M16.2786 19.9893V20.0017M16.2786 19.9893V20.0017M16.2786 20.0017V20.0141M16.2786 20.0017V20.0141M16.2786 20.0141V20.0265M16.2786 20.0141V20.0265M16.2786 20.0265V20.039M16.2786 20.0265V20.039M16.2786 20.039V20.0516M16.2786 20.039V20.0516M16.2786 20.0516V20.0642M16.2786 20.0516V20.0642M16.2786 20.0642V20.0768M16.2786 20.0642V20.0768M16.2786 20.0768V20.0896M16.2786 20.0768V20.0896M16.2786 20.0896V20.1023M16.2786 20.0896V20.1023M16.2786 20.1023V20.1151M16.2786 20.1023V20.1151M16.2786 20.1151V20.128M16.2786 20.1151V20.128M16.2786 20.128V20.1409M16.2786 20.128V20.1409M16.2786 20.1409V20.1539M16.2786 20.1409V20.1539M16.2786 20.1539V20.1669M16.2786 20.1539V20.1669M16.2786 20.1669V20.1799M16.2786 20.1669V20.1799M16.2786 20.1799V20.193M16.2786 20.1799V20.193M16.2786 20.193V20.2062M16.2786 20.193V20.2062M16.2786 20.2062V20.2194M16.2786 20.2062V20.2194M16.2786 20.2194V20.2326M16.2786 20.2194V20.2326M16.2786 20.2326V20.2459M16.2786 20.2326V20.2459M16.2786 20.2459V20.2592M16.2786 20.2459V20.2592M16.2786 20.2592V20.2726M16.2786 20.2592V20.2726M16.2786 20.2726V20.2861M16.2786 20.2726V20.2861M16.2786 20.2861V20.2995M16.2786 20.2861V20.2995M16.2786 20.2995V20.313M16.2786 20.2995V20.313M16.2786 20.313V20.3266M16.2786 20.313V20.3266M16.2786 20.3266V20.3402M16.2786 20.3266V20.3402M16.2786 20.3402V20.3538M16.2786 20.3402V20.3538M16.2786 20.3538V20.3675M16.2786 20.3538V20.3675M16.2786 20.3675V20.3813M16.2786 20.3675V20.3813M16.2786 20.3813V20.395M16.2786 20.3813V20.395M16.2786 20.395V20.4089M16.2786 20.395V20.4089M16.2786 20.4089V20.4227M16.2786 20.4089V20.4227M16.2786 20.4227V20.4366M16.2786 20.4227V20.4366M16.2786 20.4366V20.4506M16.2786 20.4366V20.4506M16.2786 20.4506V20.4645M16.2786 20.4506V20.4645M16.2786 20.4645V20.4785M16.2786 20.4645V20.4785M16.2786 20.4785V20.4926M16.2786 20.4785V20.4926M16.2786 20.4926V20.5067M16.2786 20.4926V20.5067M16.2786 20.5067V20.5208M16.2786 20.5067V20.5208M16.2786 20.5208V20.535M16.2786 20.5208V20.535M16.2786 20.535V20.5492M16.2786 20.535V20.5492M16.2786 20.5492V20.5635M16.2786 20.5492V20.5635M16.2786 20.5635V20.5778M16.2786 20.5635V20.5778M16.2786 20.5778V20.5921M16.2786 20.5778V20.5921M16.2786 20.5921V20.6065M16.2786 20.5921V20.6065M16.2786 20.6065V20.6209M16.2786 20.6065V20.6209M16.2786 20.6209V20.6353M16.2786 20.6209V20.6353M16.2786 20.6353V20.6498M16.2786 20.6353V20.6498M16.2786 20.6498V20.6643M16.2786 20.6498V20.6643M16.2786 20.6643V20.6788M16.2786 20.6643V20.6788M16.2786 20.6788V20.6934M16.2786 20.6788V20.6934M16.2786 20.6934V20.708M16.2786 20.6934V20.708M16.2786 20.708V20.7226M16.2786 20.708V20.7226M16.2786 20.7226V20.7373M16.2786 20.7226V20.7373M16.2786 20.7373V20.752M16.2786 20.7373V20.752M16.2786 20.752V20.7667M16.2786 20.752V20.7667M16.2786 20.7667V20.7815M16.2786 20.7667V20.7815M16.2786 20.7815V20.7963M16.2786 20.7815V20.7963M16.2786 20.7963V20.8111M16.2786 20.7963V20.8111M16.2786 20.8111V20.826M16.2786 20.8111V20.826M16.2786 20.826V20.8409M16.2786 20.826V20.8409M16.2786 20.8409V20.8558M16.2786 20.8409V20.8558M16.2786 20.8558V20.8708M16.2786 20.8558V20.8708M16.2786 20.8708V20.8858M16.2786 20.8708V20.8858M16.2786 20.8858V20.9008M16.2786 20.8858V20.9008M16.2786 20.9008V20.9158M16.2786 20.9008V20.9158M16.2786 20.9158V20.9309M16.2786 20.9158V20.9309M16.2786 20.9309V20.946M16.2786 20.9309V20.946M16.2786 20.946V20.9611M16.2786 20.946V20.9611M16.2786 20.9611V20.9763M16.2786 20.9611V20.9763M16.2786 20.9763V20.9914M16.2786 20.9763V20.9914M16.2786 20.9914V21.0066M16.2786 20.9914V21.0066M16.2786 21.0066V21.0219M16.2786 21.0066V21.0219M16.2786 21.0219V21.0371M16.2786 21.0219V21.0371M16.2786 21.0371V21.0524M16.2786 21.0371V21.0524M16.2786 21.0524V21.0677M16.2786 21.0524V21.0677M16.2786 21.0677V21.0831M16.2786 21.0677V21.0831M16.2786 21.0831V21.0984M16.2786 21.0831V21.0984M16.2786 21.0984V21.1138M16.2786 21.0984V21.1138M16.2786 21.1138V21.1292M16.2786 21.1138V21.1292M16.2786 21.1292V21.1446M16.2786 21.1292V21.1446M16.2786 21.1446V21.1601M16.2786 21.1446V21.1601M16.2786 21.1601V21.1756M16.2786 21.1601V21.1756M16.2786 21.1756V21.1911M16.2786 21.1756V21.1911M16.2786 21.1911V21.2066M16.2786 21.1911V21.2066M16.2786 21.2066V21.2221M16.2786 21.2066V21.2221M16.2786 21.2221V21.2377M16.2786 21.2221V21.2377M16.2786 21.2377V21.2532M16.2786 21.2377V21.2532M16.2786 21.2532V21.2688M16.2786 21.2532V21.2688M16.2786 21.2688V21.2845M16.2786 21.2688V21.2845M16.2786 21.2845V21.3001M16.2786 21.2845V21.3001M16.2786 21.3001V21.3158M16.2786 21.3001V21.3158M16.2786 21.3158V21.3314M16.2786 21.3158V21.3314M16.2786 21.3314V21.3471M16.2786 21.3314V21.3471M16.2786 21.3471V21.3628M16.2786 21.3471V21.3628M16.2786 21.3628V21.3786M16.2786 21.3628V21.3786M16.2786 21.3786V21.3943M16.2786 21.3786V21.3943M16.2786 21.3943V21.4101M16.2786 21.3943V21.4101M16.2786 21.4101V21.4259M16.2786 21.4101V21.4259M16.2786 21.4259V21.4417M16.2786 21.4259V21.4417M16.2786 21.4417V21.4575M16.2786 21.4417V21.4575M16.2786 21.4575V21.4733M16.2786 21.4575V21.4733M16.2786 21.4733V21.4891M16.2786 21.4733V21.4891M16.2786 21.4891V21.505M16.2786 21.4891V21.505M16.2786 21.505V21.5209M16.2786 21.505V21.5209M16.2786 21.5209V21.5367M16.2786 21.5209V21.5367M16.2786 21.5367V21.5526M16.2786 21.5367V21.5526M16.2786 21.5526V21.5685M16.2786 21.5526V21.5685M16.2786 21.5685V21.5845M16.2786 21.5685V21.5845M16.2786 21.5845V21.6004M16.2786 21.5845V21.6004M16.2786 21.6004V21.6164M16.2786 21.6004V21.6164M16.2786 21.6164V21.6323M16.2786 21.6164V21.6323M16.2786 21.6323V21.6483M16.2786 21.6323V21.6483M16.2786 21.6483V21.6643M16.2786 21.6483V21.6643M16.2786 21.6643V21.6803M16.2786 21.6643V21.6803M16.2786 21.6803V21.6963M16.2786 21.6803V21.6963M16.2786 21.6963V21.7123M16.2786 21.6963V21.7123M16.2786 21.7123V21.7283M16.2786 21.7123V21.7283M16.2786 21.7283V21.7443M16.2786 21.7283V21.7443M16.2786 21.7443V21.7604M16.2786 21.7443V21.7604M16.2786 21.7604V21.7764M16.2786 21.7604V21.7764M16.2786 21.7764V21.7925M16.2786 21.7764V21.7925M16.2786 21.7925V21.8085M16.2786 21.7925V21.8085M16.2786 21.8085V21.8246M16.2786 21.8085V21.8246M16.2786 21.8246V21.8407M16.2786 21.8246V21.8407M16.2786 21.8407V21.8567M16.2786 21.8407V21.8567M16.2786 21.8567V21.8728M16.2786 21.8567V21.8728M16.2786 21.8728V21.8889M16.2786 21.8728V21.8889M16.2786 21.8889V21.905M16.2786 21.8889V21.905M16.2786 21.905V21.9211M16.2786 21.905V21.9211M16.2786 21.9211V21.9372M16.2786 21.9211V21.9372M16.2786 21.9372V21.9533M16.2786 21.9372V21.9533M16.2786 21.9533V21.9694M16.2786 21.9533V21.9694M16.2786 21.9694V21.9856M16.2786 21.9694V21.9856M16.2786 21.9856V22.0017M16.2786 21.9856V22.0017M16.2786 22.0017V22.0178M16.2786 22.0017V22.0178M16.2786 22.0178V22.0339M16.2786 22.0178V22.0339M16.2786 22.0339V22.0501M16.2786 22.0339V22.0501M16.2786 22.0501V22.0662M16.2786 22.0501V22.0662M16.2786 22.0662V22.0823M16.2786 22.0662V22.0823M16.2786 22.0823V22.0985M16.2786 22.0823V22.0985M16.2786 22.0985V22.1146M16.2786 22.0985V22.1146M16.2786 22.1146V22.1307M16.2786 22.1146V22.1307M16.2786 22.1307V22.1468M16.2786 22.1307V22.1468M16.2786 22.1468V22.163M16.2786 22.1468V22.163M16.2786 22.163V22.1791M16.2786 22.163V22.1791M16.2786 22.1791V22.1952M16.2786 22.1791V22.1952M16.2786 22.1952V22.2114M16.2786 22.1952V22.2114M16.2786 22.2114V22.2275M16.2786 22.2114V22.2275M16.2786 22.2275V22.2436M16.2786 22.2275V22.2436M16.2786 22.2436V22.2597M16.2786 22.2436V22.2597M16.2786 22.2597V22.2758M16.2786 22.2597V22.2758M16.2786 22.2758V22.2919M16.2786 22.2758V22.2919M16.2786 22.2919V22.3081M16.2786 22.2919V22.3081M16.2786 22.3081V22.3242M16.2786 22.3081V22.3242M16.2786 22.3242V22.3402M16.2786 22.3242V22.3402M16.2786 22.3402V22.3563M16.2786 22.3402V22.3563M16.2786 22.3563V22.3724M16.2786 22.3563V22.3724M16.2786 22.3724V22.3885M16.2786 22.3724V22.3885M16.2786 22.3885V22.4046M16.2786 22.3885V22.4046M16.2786 22.4046V22.4206M16.2786 22.4046V22.4206M16.2786 22.4206V22.4367M16.2786 22.4206V22.4367M16.2786 22.4367V22.4528M16.2786 22.4367V22.4528M16.2786 22.4528V22.4688M16.2786 22.4528V22.4688M16.2786 22.4688V22.4848M16.2786 22.4688V22.4848M16.2786 22.4848V22.5009M16.2786 22.4848V22.5009M16.2786 22.5009V22.5169M16.2786 22.5009V22.5169M16.2786 22.5169V22.5329M16.2786 22.5169V22.5329M16.2786 22.5329V22.5489M16.2786 22.5329V22.5489M16.2786 22.5489V22.5649M16.2786 22.5489V22.5649M16.2786 22.5649V22.5809M16.2786 22.5649V22.5809M16.2786 22.5809V22.5968M16.2786 22.5809V22.5968M16.2786 22.5968V22.6128M16.2786 22.5968V22.6128M16.2786 22.6128V22.6287M16.2786 22.6128V22.6287M16.2786 22.6287V22.6447M16.2786 22.6287V22.6447M16.2786 22.6447V22.6606M16.2786 22.6447V22.6606M16.2786 22.6606V22.6765M16.2786 22.6606V22.6765M16.2786 22.6765V22.6924M16.2786 22.6765V22.6924M16.2786 22.6924V22.7083M16.2786 22.6924V22.7083M16.2786 22.7083V22.7241M16.2786 22.7083V22.7241M16.2786 22.7241V22.74M16.2786 22.7241V22.74M16.2786 22.74V22.7558M16.2786 22.74V22.7558M16.2786 22.7558V22.7717M16.2786 22.7558V22.7717M16.2786 22.7717V22.7875M16.2786 22.7717V22.7875M16.2786 22.7875V22.8033M16.2786 22.7875V22.8033M16.2786 22.8033V22.819M16.2786 22.8033V22.819M16.2786 22.819V22.8348M16.2786 22.819V22.8348M16.2786 22.8348V22.8505M16.2786 22.8348V22.8505M16.2786 22.8505V22.8663M16.2786 22.8505V22.8663M16.2786 22.8663V22.882M16.2786 22.8663V22.882M16.2786 22.882V22.8977M16.2786 22.882V22.8977M16.2786 22.8977V22.9133M16.2786 22.8977V22.9133M16.2786 22.9133V22.929M16.2786 22.9133V22.929M16.2786 22.929V22.9446M16.2786 22.929V22.9446M16.2786 22.9446V22.9602M16.2786 22.9446V22.9602M16.2786 22.9602V22.9758M16.2786 22.9602V22.9758M16.2786 22.9758V22.9914M16.2786 22.9758V22.9914M16.2786 22.9914V23.007M16.2786 22.9914V23.007M16.2786 23.007V23.0225M16.2786 23.007V23.0225M16.2786 23.0225V23.038M16.2786 23.0225V23.038M16.2786 23.038V23.0535M16.2786 23.038V23.0535M16.2786 23.0535V23.069M16.2786 23.0535V23.069M16.2786 23.069V23.0844M16.2786 23.069V23.0844M16.2786 23.0844V23.0998M16.2786 23.0844V23.0998M16.2786 23.0998V23.1152M16.2786 23.0998V23.1152M16.2786 23.1152V23.1306M16.2786 23.1152V23.1306M16.2786 23.1306V23.146M16.2786 23.1306V23.146M16.2786 23.146V23.1613M16.2786 23.146V23.1613M16.2786 23.1613V23.1766M16.2786 23.1613V23.1766M16.2786 23.1766V23.1919M16.2786 23.1766V23.1919M16.2786 23.1919V23.2071M16.2786 23.1919V23.2071M16.2786 23.2071V23.2224M16.2786 23.2071V23.2224M16.2786 23.2224V23.2376M16.2786 23.2224V23.2376M16.2786 23.2376V23.2527M16.2786 23.2376V23.2527M16.2786 23.2527V23.2679M16.2786 23.2527V23.2679M16.2786 23.2679V23.283M16.2786 23.2679V23.283M16.2786 23.283V23.2981M16.2786 23.283V23.2981M16.2786 23.2981V23.3132M16.2786 23.2981V23.3132M16.2786 23.3132V23.3282M16.2786 23.3132V23.3282M16.2786 23.3282V23.3432M16.2786 23.3282V23.3432M16.2786 23.3432V23.3582M16.2786 23.3432V23.3582M16.2786 23.3582V23.3732M16.2786 23.3582V23.3732M16.2786 23.3732V23.3881M16.2786 23.3732V23.3881M16.2786 23.3881V23.403M16.2786 23.3881V23.403M16.2786 23.403V23.4178M16.2786 23.403V23.4178M16.2786 23.4178V23.4326M16.2786 23.4178V23.4326M16.2786 23.4326V23.4474M16.2786 23.4326V23.4474M16.2786 23.4474V23.4622M16.2786 23.4474V23.4622M16.2786 23.4622V23.4769M16.2786 23.4622V23.4769M16.2786 23.4769V23.4916M16.2786 23.4769V23.4916M16.2786 23.4916V23.5063M16.2786 23.4916V23.5063M16.2786 23.5063V23.5209M16.2786 23.5063V23.5209M16.2786 23.5209V23.5355M16.2786 23.5209V23.5355M16.2786 23.5355V23.5501M16.2786 23.5355V23.5501M16.2786 23.5501V23.5646M16.2786 23.5501V23.5646M16.2786 23.5646V23.5791M16.2786 23.5646V23.5791M16.2786 23.5791V23.5936M16.2786 23.5791V23.5936M16.2786 23.5936V23.608M16.2786 23.5936V23.608M16.2786 23.608V23.6224M16.2786 23.608V23.6224M16.2786 23.6224V23.6368M16.2786 23.6224V23.6368M16.2786 23.6368V23.6511M16.2786 23.6368V23.6511M16.2786 23.6511V23.6654M16.2786 23.6511V23.6654M16.2786 23.6654V23.6796M16.2786 23.6654V23.6796M16.2786 23.6796V23.6938M16.2786 23.6796V23.6938M16.2786 23.6938V23.708M16.2786 23.6938V23.708M16.2786 23.708V23.7221M16.2786 23.708V23.7221M16.2786 23.7221V23.7362M16.2786 23.7221V23.7362M16.2786 23.7362V23.7503M16.2786 23.7362V23.7503M16.2786 23.7503V23.7643M16.2786 23.7503V23.7643M16.2786 23.7643V23.7783M16.2786 23.7643V23.7783M16.2786 23.7783V23.7922M16.2786 23.7783V23.7922M16.2786 23.7922V23.8061M16.2786 23.7922V23.8061M16.2786 23.8061V23.8199M16.2786 23.8061V23.8199M16.2786 23.8199V23.8337M16.2786 23.8199V23.8337M16.2786 23.8337V23.8475M16.2786 23.8337V23.8475M16.2786 23.8475V23.8612M16.2786 23.8475V23.8612M16.2786 23.8612V23.8749M16.2786 23.8612V23.8749M16.2786 23.8749V23.8886M16.2786 23.8749V23.8886M16.2786 23.8886V23.9021M16.2786 23.8886V23.9021M16.2786 23.9021V23.9157M16.2786 23.9021V23.9157M16.2786 23.9157V23.9292M16.2786 23.9157V23.9292M16.2786 23.9292V23.9427M16.2786 23.9292V23.9427M16.2786 23.9427V23.9561M16.2786 23.9427V23.9561M16.2786 23.9561V23.9695M16.2786 23.9561V23.9695M16.2786 23.9695V23.9828M16.2786 23.9695V23.9828M16.2786 23.9828V23.9961M16.2786 23.9828V23.9961M16.2786 23.9961V24.0093M16.2786 23.9961V24.0093M16.2786 24.0093V24.0225M16.2786 24.0093V24.0225M16.2786 24.0225V24.0356M16.2786 24.0225V24.0356M16.2786 24.0356V24.0487M16.2786 24.0356V24.0487M16.2786 24.0487V24.0618M16.2786 24.0487V24.0618M16.2786 24.0618V24.0748M16.2786 24.0618V24.0748M16.2786 24.0748V24.0877M16.2786 24.0748V24.0877M16.2786 24.0877V24.1006M16.2786 24.0877V24.1006M16.2786 24.1006V24.1135M16.2786 24.1006V24.1135M16.2786 24.1135V24.1263M16.2786 24.1135V24.1263M16.2786 24.1263V24.139M16.2786 24.1263V24.139M16.2786 24.139V24.1518M16.2786 24.139V24.1518M16.2786 24.1518V24.1644M16.2786 24.1518V24.1644M16.2786 24.1644V24.177M16.2786 24.1644V24.177M16.2786 24.177V24.1896M16.2786 24.177V24.1896M16.2786 24.1896V24.202M16.2786 24.1896V24.202M16.2786 24.202V24.2145M16.2786 24.202V24.2145M16.2786 24.2145V24.2269M16.2786 24.2145V24.2269M16.2786 24.2269V24.2392M16.2786 24.2269V24.2392M16.2786 24.2392V24.2515M16.2786 24.2392V24.2515M16.2786 24.2515V24.2637M16.2786 24.2515V24.2637M16.2786 24.2637V24.2759M16.2786 24.2637V24.2759M16.2786 24.2759V24.288M16.2786 24.2759V24.288M16.2786 24.288V24.3001M16.2786 24.288V24.3001M16.2786 24.3001V24.3121M16.2786 24.3001V24.3121M16.2786 24.3121V24.3241M16.2786 24.3121V24.3241M16.2786 24.3241V24.336M16.2786 24.3241V24.336M16.2786 24.336V24.3478M16.2786 24.336V24.3478M16.2786 24.3478V24.3596M16.2786 24.3478V24.3596M16.2786 24.3596V24.3714M16.2786 24.3596V24.3714M16.2786 24.3714V24.383M16.2786 24.3714V24.383M16.2786 24.383V24.3946M16.2786 24.383V24.3946M16.2786 24.3946V24.4062M16.2786 24.3946V24.4062M16.2786 24.4062V24.4177M16.2786 24.4062V24.4177M16.2786 24.4177V24.4291M16.2786 24.4177V24.4291M16.2786 24.4291V24.4405M16.2786 24.4291V24.4405M16.2786 24.4405V24.4518M16.2786 24.4405V24.4518M16.2786 24.4518V24.4631M16.2786 24.4518V24.4631M16.2786 24.4631V24.4743M16.2786 24.4631V24.4743M16.2786 24.4743V24.4854M16.2786 24.4743V24.4854M16.2786 24.4854V24.4965M16.2786 24.4854V24.4965M16.2786 24.4965V24.5075M16.2786 24.4965V24.5075M16.2786 24.5075V24.5185M16.2786 24.5075V24.5185M16.2786 24.5185V24.5294M16.2786 24.5185V24.5294M16.2786 24.5294V24.5402M16.2786 24.5294V24.5402M16.2786 24.5402V24.551M16.2786 24.5402V24.551M16.2786 24.551V24.5617M16.2786 24.551V24.5617M16.2786 24.5617V24.5723M16.2786 24.5617V24.5723M16.2786 24.5723V24.5829M16.2786 24.5723V24.5829M16.2786 24.5829V24.5934M16.2786 24.5829V24.5934M16.2786 24.5934V24.6039M16.2786 24.5934V24.6039M16.2786 24.6039V24.6142M16.2786 24.6039V24.6142M16.2786 24.6142V24.6246M16.2786 24.6142V24.6246M16.2786 24.6246V24.6348M16.2786 24.6246V24.6348M16.2786 24.6348V24.645M16.2786 24.6348V24.645M16.2786 24.645V24.6551M16.2786 24.645V24.6551M16.2786 24.6551V24.6652M16.2786 24.6551V24.6652M16.2786 24.6652V24.6751M16.2786 24.6652V24.6751M16.2786 24.6751V24.6851M16.2786 24.6751V24.6851M16.2786 24.6851V24.6949M16.2786 24.6851V24.6949M16.2786 24.6949V24.7047M16.2786 24.6949V24.7047M16.2786 24.7047V24.7144M16.2786 24.7047V24.7144M16.2786 24.7144V24.724M16.2786 24.7144V24.724M16.2786 24.724V24.7336M16.2786 24.724V24.7336M16.2786 24.7336V24.7431M16.2786 24.7336V24.7431M16.2786 24.7431V24.7525M16.2786 24.7431V24.7525M16.2786 24.7525V24.7619M16.2786 24.7525V24.7619M16.2786 24.7619V24.7712M16.2786 24.7619V24.7712M16.2786 24.7712V24.7804M16.2786 24.7712V24.7804M16.2786 24.7804V24.7895M16.2786 24.7804V24.7895M16.2786 24.7895V24.7986M16.2786 24.7895V24.7986M16.2786 24.7986V24.8076M16.2786 24.7986V24.8076M16.2786 24.8076V24.8165M16.2786 24.8076V24.8165M16.2786 24.8165V24.8253M16.2786 24.8165V24.8253M16.2786 24.8253V24.8341M16.2786 24.8253V24.8341M16.2786 24.8341V24.8428M16.2786 24.8341V24.8428M16.2786 24.8428V24.8514M16.2786 24.8428V24.8514M16.2786 24.8514V24.86M16.2786 24.8514V24.86M16.2786 24.86V24.8685M16.2786 24.86V24.8685M16.2786 24.8685V24.8769M16.2786 24.8685V24.8769M16.2786 24.8769V24.8852M16.2786 24.8769V24.8852M16.2786 24.8852V24.8935M16.2786 24.8852V24.8935M16.2786 24.8935V24.9016M16.2786 24.8935V24.9016M16.2786 24.9016V24.9097M16.2786 24.9016V24.9097M16.2786 24.9097V24.9177M16.2786 24.9097V24.9177M16.2786 24.9177V24.9257M16.2786 24.9177V24.9257M16.2786 24.9257V24.9335M16.2786 24.9257V24.9335M16.2786 24.9335V24.9413M16.2786 24.9335V24.9413M16.2786 24.9413V24.949M16.2786 24.9413V24.949M16.2786 24.949V24.9566M16.2786 24.949V24.9566M16.2786 24.9566V24.9642M16.2786 24.9566V24.9642M16.2786 24.9642V24.9716M16.2786 24.9642V24.9716M16.2786 24.9716V24.979M16.2786 24.9716V24.979M16.2786 24.979V24.9863M16.2786 24.979V24.9863M16.2786 24.9863V24.9935M16.2786 24.9863V24.9935M16.2786 24.9935V25.0007M16.2786 24.9935V25.0007M16.2786 25.0007V25.0077M16.2786 25.0007V25.0077M16.2786 25.0077V25.0147M16.2786 25.0077V25.0147M16.2786 25.0147V25.0216M16.2786 25.0147V25.0216M16.2786 25.0216V25.0284M16.2786 25.0216V25.0284M16.2786 25.0284V25.0351M16.2786 25.0284V25.0351M16.2786 25.0351V25.0418M16.2786 25.0351V25.0418M16.2786 25.0418V25.0483M16.2786 25.0418V25.0483M16.2786 25.0483V25.0548M16.2786 25.0483V25.0548M16.2786 25.0548V25.0612M16.2786 25.0548V25.0612M16.2786 25.0612V25.0675M16.2786 25.0612V25.0675M16.2786 25.0675V25.0737M16.2786 25.0675V25.0737M16.2786 25.0737V25.0798M16.2786 25.0737V25.0798M16.2786 25.0798V25.0859M16.2786 25.0798V25.0859M16.2786 25.0859V25.0918M16.2786 25.0859V25.0918M16.2786 25.0918V25.0977M16.2786 25.0918V25.0977M16.2786 25.0977V25.1035M16.2786 25.0977V25.1035M16.2786 25.1035V25.1092M16.2786 25.1035V25.1092M16.2786 25.1092V25.1148M16.2786 25.1092V25.1148M16.2786 25.1148V25.1203M16.2786 25.1148V25.1203M16.2786 25.1203V25.1257M16.2786 25.1203V25.1257M16.2786 25.1257V25.131M16.2786 25.1257V25.131M16.2786 25.131V25.1363M16.2786 25.131V25.1363M16.2786 25.1363V25.1414M16.2786 25.1363V25.1414M16.2786 25.1414V25.1465M16.2786 25.1414V25.1465M16.2786 25.1465V25.1515M16.2786 25.1465V25.1515M16.2786 25.1515V25.1564M16.2786 25.1515V25.1564M16.2786 25.1564V25.1611M16.2786 25.1564V25.1611M16.2786 25.1611V25.1658M16.2786 25.1611V25.1658M16.2786 25.1658V25.1705M16.2786 25.1658V25.1705M16.2786 25.1705V25.175M16.2786 25.1705V25.175M16.2786 25.175V25.1794M16.2786 25.175V25.1794M16.2786 25.1794V25.1837M16.2786 25.1794V25.1837M16.2786 25.1837V25.1879M16.2786 25.1837V25.1879M16.2786 25.1879V25.1921M16.2786 25.1879V25.1921M16.2786 25.1921V25.1961M16.2786 25.1921V25.1961M16.2786 25.1961V25.2001M16.2786 25.1961V25.2001M16.2786 25.2001V25.2039M16.2786 25.2001V25.2039M16.2786 25.2039V25.2077M16.2786 25.2039V25.2077M16.2786 25.2077V25.2113M16.2786 25.2077V25.2113M16.2786 25.2113V25.2149M16.2786 25.2113V25.2149M16.2786 25.2149V25.2184M16.2786 25.2149V25.2184M16.2786 25.2184V25.2217M16.2786 25.2184V25.2217M16.2786 25.2217V25.225M16.2786 25.2217V25.225M16.2786 25.225V25.2282M16.2786 25.225V25.2282M16.2786 25.2282V25.2312M16.2786 25.2282V25.2312M16.2786 25.2312V25.2342M16.2786 25.2312V25.2342M16.2786 25.2342V25.2371M16.2786 25.2342V25.2371M16.2786 25.2371V25.2399M16.2786 25.2371V25.2399M16.2786 25.2399V25.2425M16.2786 25.2399V25.2425M16.2786 25.2425V25.2451M16.2786 25.2425V25.2451M16.2786 25.2451V25.2476M16.2786 25.2451V25.2476M16.2786 25.2476V25.25M16.2786 25.2476V25.25M16.2786 25.25V25.2522M16.2786 25.25V25.2522M16.2786 25.2522V25.2544M16.2786 25.2522V25.2544M16.2786 25.2544V25.2565M16.2786 25.2544V25.2565M16.2786 25.2565V25.2585M16.2786 25.2565V25.2585M16.2786 25.2585V25.2603M16.2786 25.2585V25.2603M16.2786 25.2603V25.2621M16.2786 25.2603V25.2621M16.2786 25.2621V25.2637M16.2786 25.2621V25.2637M16.2786 25.2637V25.2653M16.2786 25.2637V25.2653M16.2786 25.2653V25.2667M16.2786 25.2653V25.2667M16.2786 25.2667V25.2681M16.2786 25.2667V25.2681M16.2786 25.2681V25.2693M16.2786 25.2681V25.2693M16.2786 25.2693V25.2704M16.2786 25.2693V25.2704M16.2786 25.2704V25.2715M16.2786 25.2704V25.2715M16.2786 25.2715V25.2724M16.2786 25.2715V25.2724M16.2786 25.2724V25.2732M16.2786 25.2724V25.2732M16.2786 25.2732V25.2739M16.2786 25.2732V25.2739M16.2786 25.2739V25.2745M16.2786 25.2739V25.2745M16.2786 25.2745V25.275M16.2786 25.2745V25.275M16.2786 25.275V25.2754M16.2786 25.275V25.2754M16.2786 25.2754V25.2756M16.2786 25.2754V25.2756M16.2786 25.2756V25.2758M16.2786 25.2756V25.2758M16.2786 25.2758L16.4286 25.2759L16.2786 25.2758ZM4.15438 7.43991C4.74289 7.83541 5.43489 8.04655 6.14286 8.04655C7.09223 8.04655 8.00255 7.66724 8.67359 6.99234C9.34461 6.31747 9.72143 5.40232 9.72143 4.44828C9.72143 3.7368 9.51166 3.04122 9.11855 2.44951C8.72543 1.85779 8.16659 1.39647 7.5126 1.12402C6.85859 0.851566 6.1389 0.780266 5.44455 0.919174C4.75021 1.05808 4.11254 1.40092 3.61212 1.90422C3.11171 2.4075 2.77103 3.04862 2.63302 3.74645C2.495 4.44428 2.56583 5.1676 2.83657 5.825C3.10732 6.4824 3.56587 7.04443 4.15438 7.43991ZM5.27412 3.13921C5.53134 2.96635 5.83366 2.87414 6.14286 2.87414C6.55745 2.87414 6.95524 3.03978 7.24867 3.33489C7.54213 3.63003 7.70714 4.03051 7.70714 4.44828C7.70714 4.7598 7.61529 5.06426 7.44329 5.32315C7.2713 5.58203 7.02694 5.78367 6.7412 5.90271C6.45547 6.02174 6.14111 6.05287 5.83784 5.9922C5.53456 5.93153 5.25587 5.78175 5.03704 5.56167C4.81821 5.34157 4.66908 5.06105 4.60866 4.75554C4.54824 4.45002 4.57926 4.13334 4.69776 3.8456C4.81626 3.55787 5.01688 3.31207 5.27412 3.13921ZM17.8687 7.43991C18.4572 7.83541 19.1492 8.04655 19.8571 8.04655C20.8065 8.04655 21.7168 7.66724 22.3879 6.99234C23.0589 6.31747 23.4357 5.40232 23.4357 4.44828C23.4357 3.7368 23.2259 3.04122 22.8328 2.44951C22.4397 1.85779 21.8809 1.39647 21.2269 1.12402C20.5729 0.851566 19.8532 0.780266 19.1588 0.919174C18.4645 1.05808 17.8268 1.40092 17.3264 1.90422C16.826 2.4075 16.4853 3.04862 16.3473 3.74645C16.2093 4.44428 16.2801 5.1676 16.5509 5.825C16.8216 6.4824 17.2802 7.04443 17.8687 7.43991ZM18.9884 3.13921C19.2456 2.96635 19.5479 2.87414 19.8571 2.87414C20.2717 2.87414 20.6695 3.03978 20.963 3.33489C21.2564 3.63003 21.4214 4.03051 21.4214 4.44828C21.4214 4.7598 21.3296 5.06426 21.1576 5.32315C20.9856 5.58203 20.7412 5.78367 20.4555 5.90271C20.1698 6.02174 19.8554 6.05287 19.5521 5.9922C19.2489 5.93153 18.9702 5.78175 18.7513 5.56166C18.5325 5.34157 18.3834 5.06105 18.3229 4.75554C18.2625 4.45002 18.2935 4.13334 18.412 3.8456C18.5306 3.55787 18.7312 3.31207 18.9884 3.13921ZM9.57143 25.2759L9.72143 25.2758V25.2756V25.2754V25.275V25.2745V25.2739V25.2732V25.2724V25.2715V25.2704V25.2693V25.2681V25.2667V25.2653V25.2637V25.2621V25.2603V25.2585V25.2565V25.2544V25.2522V25.25V25.2476V25.2451V25.2425V25.2399V25.2371V25.2342V25.2312V25.2282V25.225V25.2217V25.2184V25.2149V25.2113V25.2077V25.2039V25.2001V25.1961V25.1921V25.1879V25.1837V25.1794V25.175V25.1705V25.1658V25.1611V25.1564V25.1515V25.1465V25.1414V25.1363V25.131V25.1257V25.1203V25.1148V25.1092V25.1035V25.0977V25.0918V25.0859V25.0798V25.0737V25.0675V25.0612V25.0548V25.0483V25.0418V25.0351V25.0284V25.0216V25.0147V25.0077V25.0007V24.9935V24.9863V24.979V24.9716V24.9642V24.9566V24.949V24.9413V24.9335V24.9257V24.9177V24.9097V24.9016V24.8935V24.8852V24.8769V24.8685V24.86V24.8514V24.8428V24.8341V24.8253V24.8165V24.8076V24.7986V24.7895V24.7804V24.7712V24.7619V24.7525V24.7431V24.7336V24.724V24.7144V24.7047V24.6949V24.6851V24.6751V24.6652V24.6551V24.645V24.6348V24.6246V24.6142V24.6039V24.5934V24.5829V24.5723V24.5617V24.551V24.5402V24.5294V24.5185V24.5075V24.4965V24.4854V24.4743V24.4631V24.4518V24.4405V24.4291V24.4177V24.4062V24.3946V24.383V24.3714V24.3596V24.3478V24.336V24.3241V24.3121V24.3001V24.288V24.2759V24.2637V24.2515V24.2392V24.2269V24.2145V24.202V24.1896V24.177V24.1644V24.1518V24.139V24.1263V24.1135V24.1006V24.0877V24.0748V24.0618V24.0487V24.0356V24.0225V24.0093L9.57143 25.2759Z" fill="#C9CDCF" stroke="#C9CDCF" stroke-width="0.3"/>
</g>
<defs>
<linearGradient id="paint0_linear_0_1" x1="720" y1="0" x2="720" y2="1298" gradientUnits="userSpaceOnUse">
<stop offset="0.0520833" stop-color="#F8F8F8"/>
<stop offset="0.552083" stop-color="#EDEFEB"/>
<stop offset="0.8125" stop-color="#EEF3E9"/>
<stop offset="1" stop-color="#DBE4D1"/>
</linearGradient>
</defs>
</svg>
