<svg width="24" height="24" viewBox="0 0 24 24" fill="none" xmlns="http://www.w3.org/2000/svg">
<rect width="24" height="24" fill="#F5F5F5"/>
<g id="Pelanggan - Daftar Pelanggan">
<rect width="1440" height="1298" transform="translate(-35 -680)" fill="url(#paint0_linear_0_1)"/>
<g id="Rectangle 261">
<mask id="path-1-inside-1_0_1" fill="white">
<path d="M-35 -680H277V618H-35V-680Z"/>
</mask>
<path d="M-35 -680H277V618H-35V-680Z" fill="white"/>
<path d="M276.5 -680V618H277.5V-680H276.5Z" fill="#D9D9D9" mask="url(#path-1-inside-1_0_1)"/>
</g>
<rect id="Rectangle 577" x="-35" y="-15" width="312" height="51" fill="white"/>
<path id="Vector" d="M12 24L7.9995 19.7655H3C2.20435 19.7655 1.44129 19.4494 0.87868 18.8868C0.31607 18.3242 0 17.5611 0 16.7655V3C0 2.20435 0.31607 1.44129 0.87868 0.87868C1.44129 0.31607 2.20435 0 3 0H21C21.7956 0 22.5587 0.31607 23.1213 0.87868C23.6839 1.44129 24 2.20435 24 3V16.7655C24 17.5611 23.6839 18.3242 23.1213 18.8868C22.5587 19.4494 21.7956 19.7655 21 19.7655H16.0005L12 24ZM14.7075 16.7655H21V3H3V16.7655H9.2925L12 19.6305L14.7075 16.7655Z" fill="#C8D4D0"/>
</g>
<defs>
<linearGradient id="paint0_linear_0_1" x1="720" y1="0" x2="720" y2="1298" gradientUnits="userSpaceOnUse">
<stop offset="0.0520833" stop-color="#F8F8F8"/>
<stop offset="0.552083" stop-color="#EDEFEB"/>
<stop offset="0.8125" stop-color="#EEF3E9"/>
<stop offset="1" stop-color="#DBE4D1"/>
</linearGradient>
</defs>
</svg>
